<svg xmlns="http://www.w3.org/2000/svg" viewBox="0 0 1262 1710"><title>password</title><path d="M1196.5,713.3H1090V459.6C1090,206.3,884.2.2,631,.2S172,206.4,172,459.9V713.3H66.7C30.2,713.3,0,742.2,0,778.7v766.5c0,91,74.7,165.1,165.8,165.1h931.6c91.1,0,164.6-74.1,164.6-165.1V778.7A65,65,0,0,0,1196.5,713.3ZM304,459.9c0-180.6,146.7-327.5,327-327.5S958,279.2,958,459.6V713.3H304Zm826,1085.3a32.8,32.8,0,0,1-32.6,33.1H165.8c-18.2,0-33.8-14.9-33.8-33.1V845.3h998Z" transform="translate(0 -0.2)"/><path d="M631,1409.7a66,66,0,0,0,66-66.1V1105.8a66,66,0,1,0-132,0v237.8A66,66,0,0,0,631,1409.7Z" transform="translate(0 -0.2)"/></svg>