<svg xmlns="http://www.w3.org/2000/svg" viewBox="0 0 28 28"><title>portion</title><path d="M16,2A14,14,0,1,0,30,16,14,14,0,0,0,16,2Zm0,26A12,12,0,1,1,28,16,12,12,0,0,1,16,28Z" transform="translate(-2 -2)"/><path d="M16,7a9,9,0,1,0,9,9A9,9,0,0,0,16,7Zm0,16a7,7,0,1,1,7-7A7,7,0,0,1,16,23Z" transform="translate(-2 -2)"/><path d="M21,15a.9.9,0,0,0-1,1,4,4,0,0,1-4,4,1,1,0,0,0,0,2,6,6,0,0,0,6-6A.9.9,0,0,0,21,15Z" transform="translate(-2 -2)"/><path d="M16,10.9a1,1,0,0,0-1.2-.8,6.1,6.1,0,0,0-3.6,2.3,1.1,1.1,0,0,0,.2,1.4l.6.2a.9.9,0,0,0,.8-.4,3.8,3.8,0,0,1,2.4-1.5A1.1,1.1,0,0,0,16,10.9Z" transform="translate(-2 -2)"/></svg>